<svg width="512" height="512" viewBox="0 0 512 512" fill="none" xmlns="http://www.w3.org/2000/svg">
<g clip-path="url(#clip0_1_2)">
<path d="M448 85.3333H381.867C376.915 61.2568 363.815 39.6234 344.773 24.0793C325.732 8.53525 301.914 0.0310299 277.333 0L234.667 0C210.086 0.0310299 186.268 8.53525 167.227 24.0793C148.185 39.6234 135.085 61.2568 130.133 85.3333H64C58.3421 85.3333 52.9159 87.581 48.9151 91.5817C44.9143 95.5825 42.6667 101.009 42.6667 106.667C42.6667 112.325 44.9143 117.751 48.9151 121.752C52.9159 125.752 58.3421 128 64 128H85.3334V405.333C85.3672 433.613 96.6162 460.724 116.613 480.721C136.609 500.717 163.721 511.966 192 512H320C348.279 511.966 375.391 500.717 395.387 480.721C415.384 460.724 426.633 433.613 426.667 405.333V128H448C453.658 128 459.084 125.752 463.085 121.752C467.086 117.751 469.333 112.325 469.333 106.667C469.333 101.009 467.086 95.5825 463.085 91.5817C459.084 87.581 453.658 85.3333 448 85.3333V85.3333ZM234.667 42.6667H277.333C290.566 42.6828 303.469 46.792 314.274 54.4308C325.079 62.0696 333.257 72.8638 337.685 85.3333H174.315C178.743 72.8638 186.921 62.0696 197.726 54.4308C208.531 46.792 221.434 42.6828 234.667 42.6667V42.6667ZM384 405.333C384 422.307 377.257 438.586 365.255 450.588C353.253 462.591 336.974 469.333 320 469.333H192C175.026 469.333 158.748 462.591 146.745 450.588C134.743 438.586 128 422.307 128 405.333V128H384V405.333Z" fill="white"/>
<path d="M213.333 384C218.991 384 224.418 381.752 228.418 377.752C232.419 373.751 234.667 368.325 234.667 362.667V234.667C234.667 229.009 232.419 223.583 228.418 219.582C224.418 215.581 218.991 213.333 213.333 213.333C207.675 213.333 202.249 215.581 198.248 219.582C194.248 223.583 192 229.009 192 234.667V362.667C192 368.325 194.248 373.751 198.248 377.752C202.249 381.752 207.675 384 213.333 384Z" fill="white"/>
<path d="M298.667 384C304.325 384 309.751 381.752 313.752 377.752C317.752 373.751 320 368.325 320 362.667V234.667C320 229.009 317.752 223.583 313.752 219.582C309.751 215.581 304.325 213.333 298.667 213.333C293.009 213.333 287.583 215.581 283.582 219.582C279.581 223.583 277.333 229.009 277.333 234.667V362.667C277.333 368.325 279.581 373.751 283.582 377.752C287.583 381.752 293.009 384 298.667 384Z" fill="white"/>
</g>
<defs>
<clipPath id="clip0_1_2">
<rect width="512" height="512" fill="white"/>
</clipPath>
</defs>
</svg>
